<?xml version="1.0" encoding="iso-8859-1"?>
<!-- Uploaded to: SVG Repo, www.svgrepo.com, Generator: SVG Repo Mixer Tools -->
<!DOCTYPE svg PUBLIC "-//W3C//DTD SVG 1.1//EN" "http://www.w3.org/Graphics/SVG/1.1/DTD/svg11.dtd">
<svg fill="#000000" version="1.1" id="Capa_1" xmlns="http://www.w3.org/2000/svg" xmlns:xlink="http://www.w3.org/1999/xlink" 
	 width="800px" height="800px" viewBox="0 0 595.395 595.396"
	 xml:space="preserve">
<g>
	<g>
		<g>
			<path d="M530.87,146.094c0-15.416-5.972-29.94-16.816-40.898l-86.557-87.454c-5.436-5.491-11.807-9.783-18.936-12.758
				c-7.13-2.974-14.662-4.483-22.388-4.483H122.666c-32.058,0-58.14,26.082-58.14,58.14v478.116c0,32.059,26.082,58.14,58.14,58.14
				H472.73c32.059,0,58.14-26.081,58.14-58.14V146.094z M479.55,131.234h-63.639c-4.089,0-7.932-1.593-10.822-4.485
				c-2.891-2.893-4.48-6.738-4.478-10.826l0.046-64.399L479.55,131.234z M488.03,536.757c0,8.449-6.851,15.3-15.3,15.3H122.666
				c-8.45,0-15.3-6.851-15.3-15.3V58.64c0-8.45,6.85-15.3,15.3-15.3h235.158l-0.052,72.553
				c-0.012,15.538,6.031,30.147,17.014,41.138c10.983,10.99,25.589,17.043,41.126,17.043h72.118V536.757z"/>
			<path d="M472.73,595.396H122.666c-32.334,0-58.64-26.306-58.64-58.64V58.64C64.026,26.306,90.332,0,122.666,0h263.508
				c7.791,0,15.388,1.521,22.58,4.521c7.191,3.001,13.617,7.331,19.099,12.868l86.557,87.454
				c10.938,11.052,16.961,25.701,16.961,41.25v390.662C531.37,569.09,505.064,595.396,472.73,595.396z M122.666,1
				c-31.783,0-57.64,25.857-57.64,57.64v478.116c0,31.782,25.857,57.64,57.64,57.64H472.73c31.782,0,57.64-25.857,57.64-57.64
				V146.094c0-15.284-5.921-29.684-16.672-40.547l-86.557-87.454c-5.388-5.443-11.704-9.698-18.772-12.648
				C401.298,2.495,393.832,1,386.173,1H122.666z M472.73,552.557H122.666c-8.712,0-15.8-7.088-15.8-15.8V58.64
				c0-8.712,7.088-15.8,15.8-15.8h235.658v0.5l-0.052,72.553c-0.012,15.403,5.979,29.887,16.867,40.784
				c10.89,10.896,25.369,16.897,40.772,16.897h72.618v363.183C488.53,545.469,481.442,552.557,472.73,552.557z M122.666,43.84
				c-8.161,0-14.8,6.64-14.8,14.8v478.117c0,8.161,6.639,14.8,14.8,14.8H472.73c8.16,0,14.8-6.639,14.8-14.8V174.574h-71.618
				c-15.67,0-30.401-6.105-41.479-17.19c-11.078-11.086-17.172-25.822-17.16-41.492l0.052-72.052H122.666z M480.749,131.734h-64.837
				c-4.222,0-8.19-1.645-11.176-4.631c-2.985-2.987-4.627-6.958-4.624-11.18l0.047-65.614L480.749,131.734z M401.157,52.74
				l-0.045,63.185c-0.003,3.955,1.535,7.673,4.331,10.472c2.797,2.798,6.515,4.338,10.469,4.338h62.44L401.157,52.74z"/>
		</g>
	</g>
</g>
</svg>
