<?xml version="1.0" encoding="iso-8859-1"?>
<!-- Uploaded to: SVG Repo, www.svgrepo.com, Generator: SVG Repo Mixer Tools -->
<!DOCTYPE svg PUBLIC "-//W3C//DTD SVG 1.1//EN" "http://www.w3.org/Graphics/SVG/1.1/DTD/svg11.dtd">
<svg fill="#000000" version="1.1" id="Capa_1" xmlns="http://www.w3.org/2000/svg" xmlns:xlink="http://www.w3.org/1999/xlink" 
	 width="800px" height="800px" viewBox="0 0 576.283 576.283"
	 xml:space="preserve">
<g>
	<g>
		<g>
			<path d="M18.251,330.316l169.746,164.492c10.971,10.631,25.359,16.484,40.517,16.484c14.933,0,29.168-5.623,40.083-15.832
				c5.721-5.352,10.229-11.684,13.396-18.822c3.32-7.48,5.003-15.471,5.003-23.752v-29.748
				c40.035,3.422,78.626,11.678,115.065,24.635c38.274,13.609,66.393,29.695,83.241,40.793c9.591,6.318,20.678,9.656,32.062,9.656
				c16.228,0,31.88-6.854,42.942-18.807c5.355-5.785,9.415-12.469,12.065-19.865c2.787-7.775,3.875-15.934,3.231-24.25
				c-2.015-26.047-6.885-51.568-14.475-75.852c-10.628-34.006-26.372-64.637-46.793-91.043
				c-25.559-33.049-58.309-59.307-97.341-78.044c-37.537-18.02-81.168-29.138-130-33.156v-33.81c0-8.281-1.683-16.272-5.002-23.753
				c-3.168-7.138-7.676-13.472-13.399-18.824c-10.914-10.207-25.148-15.829-40.08-15.829c-15.191,0-29.604,5.877-40.582,16.548
				l-169.745,165c-5.752,5.591-10.217,12.177-13.271,19.574c-2.936,7.112-4.422,14.625-4.416,22.33
				c0.006,7.703,1.504,15.215,4.451,22.322C8.016,318.156,12.491,324.734,18.251,330.316z M48.047,277.256l169.746-165
				c3.145-3.057,6.971-4.426,10.721-4.426c7.993,0,15.643,6.217,15.643,15.566v59.636c0,8.39,6.663,15.279,15.049,15.525
				c230.531,6.774,268.219,169.36,273.686,240.047c0.745,9.639-7.041,16.779-15.527,16.779c-2.853,0-5.781-0.807-8.495-2.594
				c-39.211-25.828-124.417-70.498-248.752-74.076c-0.152-0.004-0.304-0.006-0.454-0.006c-8.537,0-15.506,6.945-15.506,15.539
				v58.639c0,9.348-7.65,15.566-15.642,15.566c-3.743,0-7.561-1.363-10.704-4.41L48.064,299.553
				C41.772,293.455,41.765,283.364,48.047,277.256z"/>
			<path d="M228.514,511.793c-15.289,0-29.801-5.904-40.865-16.625L17.903,330.676c-5.81-5.63-10.323-12.265-13.415-19.721
				C1.517,303.786,0.006,296.212,0,288.441c-0.006-7.77,1.492-15.347,4.454-22.521c3.081-7.461,7.584-14.103,13.385-19.741
				l169.745-165c11.073-10.762,25.608-16.689,40.93-16.689c15.059,0,29.415,5.669,40.421,15.964
				c5.772,5.398,10.319,11.786,13.515,18.986c3.348,7.545,5.045,15.605,5.045,23.956v33.349
				c48.673,4.052,92.311,15.209,129.716,33.166c39.103,18.771,71.913,45.077,97.52,78.189
				c20.459,26.455,36.229,57.139,46.875,91.199c7.601,24.319,12.478,49.877,14.495,75.963c0.649,8.385-0.447,16.613-3.259,24.457
				c-2.673,7.46-6.768,14.201-12.169,20.036c-11.156,12.054-26.941,18.967-43.31,18.967c-11.483,0-22.666-3.367-32.337-9.738
				c-16.826-11.083-44.907-27.147-83.133-40.74c-36.154-12.855-74.64-21.117-114.398-24.561v29.203
				c0,8.351-1.698,16.41-5.046,23.955c-3.193,7.197-7.739,13.585-13.511,18.984C257.93,506.122,243.574,511.793,228.514,511.793z
				 M228.514,65.49c-15.06,0-29.348,5.827-40.233,16.406l-169.745,165c-5.703,5.543-10.129,12.072-13.158,19.406
				C2.467,273.354,0.994,280.803,1,288.441c0.006,7.638,1.491,15.084,4.413,22.131c3.039,7.329,7.476,13.852,13.187,19.385
				l169.746,164.492c10.876,10.539,25.142,16.344,40.169,16.344c14.805,0,28.919-5.575,39.742-15.697
				c5.673-5.307,10.142-11.585,13.28-18.66c3.291-7.416,4.96-15.339,4.96-23.549v-30.293l0.542,0.047
				c40.037,3.422,78.792,11.72,115.191,24.662c38.319,13.625,66.476,29.732,83.349,40.846c9.507,6.264,20.498,9.574,31.786,9.574
				c16.09,0,31.608-6.796,42.575-18.646c5.31-5.735,9.335-12.361,11.962-19.694c2.764-7.71,3.842-15.799,3.204-24.042
				c-2.013-26.011-6.875-51.494-14.454-75.741c-10.609-33.947-26.325-64.525-46.711-90.887
				c-25.511-32.987-58.2-59.196-97.162-77.899c-37.41-17.959-81.089-29.099-129.824-33.109l-0.459-0.038v-34.27
				c0-8.21-1.668-16.134-4.959-23.55c-3.141-7.077-7.61-13.356-13.284-18.662C257.431,71.064,243.318,65.49,228.514,65.49z
				 M228.515,468.953c-4.159,0-7.98-1.574-11.052-4.551L47.716,299.912c-3.141-3.044-4.873-7.13-4.876-11.504
				c-0.003-4.374,1.722-8.461,4.858-11.51l169.746-165c3.075-2.988,6.902-4.568,11.07-4.568c10.104,0,16.143,8.168,16.143,16.066
				v59.636c0,8.186,6.397,14.786,14.564,15.025c99.938,2.937,174.503,35.32,221.623,96.25
				c38.01,49.15,49.555,105.577,52.546,144.258c0.351,4.524-1.126,8.817-4.155,12.091c-3.075,3.322-7.402,5.228-11.87,5.228
				c-3.079,0-6.111-0.926-8.771-2.676c-39.63-26.104-124.61-70.43-248.491-73.994c-8.442-0.238-15.446,6.594-15.446,15.033v58.639
				C244.657,460.784,238.619,468.953,228.515,468.953z M228.514,108.331c-3.902,0-7.489,1.481-10.373,4.285l-169.746,165
				c-2.941,2.859-4.559,6.692-4.556,10.793c0.003,4.101,1.627,7.932,4.572,10.785l169.746,164.49
				c2.881,2.793,6.462,4.27,10.356,4.27c9.478,0,15.142-7.66,15.142-15.066v-58.639c0-8.999,7.418-16.273,16.473-16.033
				c124.13,3.572,209.296,47.996,249.015,74.158c2.494,1.644,5.337,2.512,8.22,2.512c4.19,0,8.249-1.788,11.136-4.907
				c2.839-3.065,4.221-7.091,3.894-11.334c-5.397-69.78-42.821-232.815-273.202-239.585c-8.711-0.256-15.535-7.295-15.535-16.025
				v-59.636C243.657,115.991,237.993,108.331,228.514,108.331z"/>
		</g>
	</g>
</g>
</svg>